<svg id="visual" viewBox="0 0 1920 1080" width="1920" height="1080" xmlns="http://www.w3.org/2000/svg" xmlns:xlink="http://www.w3.org/1999/xlink" version="1.1"><path d="M0 141L22.8 146.5C45.7 152 91.3 163 137 163C182.7 163 228.3 152 274 139.3C319.7 126.7 365.3 112.3 411.2 123.2C457 134 503 170 548.8 177.2C594.7 184.3 640.3 162.7 686 160.8C731.7 159 777.3 177 823 184.3C868.7 191.7 914.3 188.3 960 179.3C1005.7 170.3 1051.3 155.7 1097 153.8C1142.7 152 1188.3 163 1234 164.8C1279.7 166.7 1325.3 159.3 1371.2 155.7C1417 152 1463 152 1508.8 155.7C1554.7 159.3 1600.3 166.7 1646 172.2C1691.7 177.7 1737.3 181.3 1783 184.8C1828.7 188.3 1874.3 191.7 1897.2 193.3L1920 195L1920 0L1897.2 0C1874.3 0 1828.7 0 1783 0C1737.3 0 1691.7 0 1646 0C1600.3 0 1554.7 0 1508.8 0C1463 0 1417 0 1371.2 0C1325.3 0 1279.7 0 1234 0C1188.3 0 1142.7 0 1097 0C1051.3 0 1005.7 0 960 0C914.3 0 868.7 0 823 0C777.3 0 731.7 0 686 0C640.3 0 594.7 0 548.8 0C503 0 457 0 411.2 0C365.3 0 319.7 0 274 0C228.3 0 182.7 0 137 0C91.3 0 45.7 0 22.8 0L0 0Z" fill="#676d8b"></path><path d="M0 368L22.8 382.5C45.7 397 91.3 426 137 454.8C182.7 483.7 228.3 512.3 274 517.7C319.7 523 365.3 505 411.2 499.7C457 494.3 503 501.7 548.8 489C594.7 476.3 640.3 443.7 686 434.7C731.7 425.7 777.3 440.3 823 442.2C868.7 444 914.3 433 960 413.2C1005.7 393.3 1051.3 364.7 1097 370.2C1142.7 375.7 1188.3 415.3 1234 449.5C1279.7 483.7 1325.3 512.3 1371.2 497.8C1417 483.3 1463 425.7 1508.8 409.5C1554.7 393.3 1600.3 418.7 1646 443.8C1691.7 469 1737.3 494 1783 513.8C1828.7 533.7 1874.3 548.3 1897.2 555.7L1920 563L1920 193L1897.2 191.3C1874.3 189.7 1828.7 186.3 1783 182.8C1737.3 179.3 1691.7 175.7 1646 170.2C1600.3 164.7 1554.7 157.3 1508.8 153.7C1463 150 1417 150 1371.2 153.7C1325.3 157.3 1279.7 164.7 1234 162.8C1188.3 161 1142.7 150 1097 151.8C1051.3 153.7 1005.7 168.3 960 177.3C914.3 186.3 868.7 189.7 823 182.3C777.3 175 731.7 157 686 158.8C640.3 160.7 594.7 182.3 548.8 175.2C503 168 457 132 411.2 121.2C365.3 110.3 319.7 124.7 274 137.3C228.3 150 182.7 161 137 161C91.3 161 45.7 150 22.8 144.5L0 139Z" fill="#545a79"></path><path d="M0 779L22.8 764.5C45.7 750 91.3 721 137 730C182.7 739 228.3 786 274 807.7C319.7 829.3 365.3 825.7 411.2 807.7C457 789.7 503 757.3 548.8 751.8C594.7 746.3 640.3 767.7 686 767.7C731.7 767.7 777.3 746.3 823 737.3C868.7 728.3 914.3 731.7 960 729.8C1005.7 728 1051.3 721 1097 740.8C1142.7 760.7 1188.3 807.3 1234 827.2C1279.7 847 1325.3 840 1371.2 822C1417 804 1463 775 1508.8 767.7C1554.7 760.3 1600.3 774.7 1646 783.7C1691.7 792.7 1737.3 796.3 1783 792.8C1828.7 789.3 1874.3 778.7 1897.2 773.3L1920 768L1920 561L1897.2 553.7C1874.3 546.3 1828.7 531.7 1783 511.8C1737.3 492 1691.7 467 1646 441.8C1600.3 416.7 1554.7 391.3 1508.8 407.5C1463 423.7 1417 481.3 1371.2 495.8C1325.3 510.3 1279.7 481.7 1234 447.5C1188.3 413.3 1142.7 373.7 1097 368.2C1051.3 362.7 1005.7 391.3 960 411.2C914.3 431 868.7 442 823 440.2C777.3 438.3 731.7 423.7 686 432.7C640.3 441.7 594.7 474.3 548.8 487C503 499.7 457 492.3 411.2 497.7C365.3 503 319.7 521 274 515.7C228.3 510.3 182.7 481.7 137 452.8C91.3 424 45.7 395 22.8 380.5L0 366Z" fill="#414868"></path><path d="M0 908L22.8 913.5C45.7 919 91.3 930 137 939C182.7 948 228.3 955 274 958.5C319.7 962 365.3 962 411.2 956.7C457 951.3 503 940.7 548.8 937.2C594.7 933.7 640.3 937.3 686 935.5C731.7 933.7 777.3 926.3 823 937C868.7 947.7 914.3 976.3 960 978.2C1005.7 980 1051.3 955 1097 953.3C1142.7 951.7 1188.3 973.3 1234 975.2C1279.7 977 1325.3 959 1371.2 959C1417 959 1463 977 1508.8 977C1554.7 977 1600.3 959 1646 948.2C1691.7 937.3 1737.3 933.7 1783 944.3C1828.7 955 1874.3 980 1897.2 992.5L1920 1005L1920 766L1897.2 771.3C1874.3 776.7 1828.7 787.3 1783 790.8C1737.3 794.3 1691.7 790.7 1646 781.7C1600.3 772.7 1554.7 758.3 1508.8 765.7C1463 773 1417 802 1371.2 820C1325.3 838 1279.7 845 1234 825.2C1188.3 805.3 1142.7 758.7 1097 738.8C1051.3 719 1005.7 726 960 727.8C914.3 729.7 868.7 726.3 823 735.3C777.3 744.3 731.7 765.7 686 765.7C640.3 765.7 594.7 744.3 548.8 749.8C503 755.3 457 787.7 411.2 805.7C365.3 823.7 319.7 827.3 274 805.7C228.3 784 182.7 737 137 728C91.3 719 45.7 748 22.8 762.5L0 777Z" fill="#383e5a"></path><path d="M0 1081L22.8 1081C45.7 1081 91.3 1081 137 1081C182.7 1081 228.3 1081 274 1081C319.7 1081 365.3 1081 411.2 1081C457 1081 503 1081 548.8 1081C594.7 1081 640.3 1081 686 1081C731.7 1081 777.3 1081 823 1081C868.7 1081 914.3 1081 960 1081C1005.7 1081 1051.3 1081 1097 1081C1142.7 1081 1188.3 1081 1234 1081C1279.7 1081 1325.3 1081 1371.2 1081C1417 1081 1463 1081 1508.8 1081C1554.7 1081 1600.3 1081 1646 1081C1691.7 1081 1737.3 1081 1783 1081C1828.7 1081 1874.3 1081 1897.2 1081L1920 1081L1920 1003L1897.2 990.5C1874.3 978 1828.7 953 1783 942.3C1737.3 931.7 1691.7 935.3 1646 946.2C1600.3 957 1554.7 975 1508.8 975C1463 975 1417 957 1371.2 957C1325.3 957 1279.7 975 1234 973.2C1188.3 971.3 1142.7 949.7 1097 951.3C1051.3 953 1005.7 978 960 976.2C914.3 974.3 868.7 945.7 823 935C777.3 924.3 731.7 931.7 686 933.5C640.3 935.3 594.7 931.7 548.8 935.2C503 938.7 457 949.3 411.2 954.7C365.3 960 319.7 960 274 956.5C228.3 953 182.7 946 137 937C91.3 928 45.7 917 22.8 911.5L0 906Z" fill="#2f354c"></path></svg>